#!OML:ASF I:\salsa\salsa 7_09\Patient 1\Session 1\dancerfemale.ASF
:FULLY-SPECIFIED
:DEGREES
2246
root 19.6141 15.7802 3.81975 -2204.51 -63.5024 410.18
lowerback 6.15419 2.96397 -4.68616
upperback -5.22347 2.47714 -9.15005
thorax -8.8742 1.02693 -7.56905
lowerneck 6.89157 -9.51305 -20.6047
upperneck 3.94878 -14.595 13.9757
head 2.59774 -7.63002 7.23041
rclavicle -7.04443e-015 3.96575e-014
rhumerus -12.2584 -8.86596 -81.3915
rradius 81.2516
rwrist 9.49003
rhand 3.90755 395.095
rfingers 7.12502
rthumb 29.3274 367.388
lclavicle -7.04443e-015 3.96575e-014
lhumerus -13.9577 0.836981 97.5236
lradius 119.611
lwrist -30.5122
lhand -26.6432 -313.288
lfingers 7.12502
lthumb -0.0755233 -2083.31
rfemur -43.477 -29.9782 11.0857
rtibia 47.8242
rfoot -20.2885 -15.7839
rtoes 0.810398
lfemur -0.0329397 7.35763 -38.4656
ltibia 23.7771
lfoot -13.8544 -16.531
ltoes -29.5005
2247
root 19.4146 15.7564 3.88154 -2206.04 -63.4477 411.22
lowerback 6.14793 2.48619 -4.60678
upperback -5.28997 1.72605 -9.85842
thorax -9.00631 0.59715 -8.3197
lowerneck 6.37146 -9.05637 -20.8149
upperneck 4.6094 -14.0083 14.8588
head 2.85038 -7.34205 7.55236
rclavicle -1.58034e-014 -4.73108e-014
rhumerus -13.6941 -8.18598 -82.7903
rradius 82.4541
rwrist 9.37717
rhand 4.04572 394.699
rfingers 7.12502
rthumb 29.4594 367.015
lclavicle -1.58034e-014 -4.73108e-014
lhumerus -14.0327 1.57807 97.993
lradius 119.636
lwrist -30.5965
lhand -27.0321 -313.22
lfingers 7.12502
lthumb -0.451061 -2083.24
rfemur -42.2141 -29.515 11.5458
rtibia 46.8558
rfoot -19.9578 -18.7237
rtoes 13.2719
lfemur 1.3002 6.26645 -38.9527
ltibia 23.7771
lfoot -13.27 -15.1347
ltoes -30.4347
2248
root 19.1998 15.7714 3.9303 -2207.3 -63.9894 412.051
lowerback 6.07832 2.11344 -4.15476
upperback -5.42137 1.17968 -10.3752
thorax -9.16098 0.25248 -9.10614
lowerneck 5.78125 -8.63231 -20.9648
upperneck 5.23345 -13.448 15.6614
head 3.09168 -7.0584 7.84382
rclavicle -1.07195e-013 6.87795e-014
rhumerus -15.0924 -7.81377 -84.1434
rradius 83.6363
rwrist 9.15206
rhand 4.17336 394.61
rfingers 7.12502
rthumb 29.5812 366.947
lclavicle -1.07195e-013 6.87795e-014
lhumerus -14.442 2.67068 98.0656
lradius 119.812
lwrist -30.7871
lhand -26.9496 -313.452
lfingers 7.12502
lthumb -0.37143 -2083.47
rfemur -39.7594 -26.5898 10.8223
rtibia 45.5954
rfoot -22.9702 -21.8735
rtoes 18.8422
lfemur 1.74783 5.98257 -38.7636
ltibia 25.149
lfoot -12.6536 -14.1649
ltoes -31.2884
2249
root 18.9761 15.7758 3.96853 -2208.38 -65.0818 412.831
lowerback 5.96884 1.76126 -3.27887
upperback -5.64808 0.721277 -10.7198
thorax -9.39764 -0.0730875 -9.97083
lowerneck 5.08553 -8.1759 -20.9703
upperneck 5.7038 -12.7895 16.2814
head 3.25911 -6.71205 8.06584
rclavicle -1.48095e-014 -5.56597e-014
rhumerus -16.4073 -7.49323 -85.418
rradius 84.9113
rwrist 8.98151
rhand 4.47207 394.637
rfingers 7.12502
rthumb 29.8663 367.026
lclavicle -1.48095e-014 -5.56597e-014
lhumerus -15.1189 3.9951 97.7709
lradius 119.915
lwrist -30.6389
lhand -27.8688 -313.715
lfingers 7.12502
lthumb -1.25918 -2083.74
rfemur -37.2067 -22.691 10.4625
rtibia 44.2215
rfoot -25.157 -24.0092
rtoes 19.8775
lfemur 1.12599 6.11564 -38.079
ltibia 28.051
lfoot -11.8083 -13.5527
ltoes -32.1212
2250
root 18.7487 15.797 3.99699 -2208.78 -66.7169 412.917
lowerback 5.93494 1.34547 -1.8052
upperback -5.90437 0.269003 -10.8148
thorax -9.72652 -0.427982 -10.9202
lowerneck 4.34601 -7.71461 -20.6859
upperneck 6.00994 -12.0685 16.6375
head 3.33494 -6.3221 8.16331
rclavicle 6.03311e-014 -6.36111e-014
rhumerus -17.6897 -7.13102 -86.4456
rradius 86.3344
rwrist 9.11997
rhand 5.03761 394.802
rfingers 7.12502
rthumb 30.4058 367.289
lclavicle 6.03311e-014 -6.36111e-014
lhumerus -16.039 5.53707 97.1091
lradius 120.099
lwrist -30.4875
lhand -28.6201 -313.997
lfingers 7.12502
lthumb -1.98483 -2084.03
rfemur -34.6538 -18.6143 10.797
rtibia 42.8927
rfoot -27.1746 -25.4051
rtoes 18.6591
lfemur -0.488328 6.37332 -36.783
ltibia 32.5088
lfoot -10.4745 -13.1026
ltoes -32.0868
2251
root 18.5245 15.834 4.01452 -2208.24 -68.8497 411.997
lowerback 6.017 0.882542 0.113644
upperback -6.11826 -0.145867 -10.5833
thorax -10.0954 -0.779469 -11.7741
lowerneck 3.71602 -7.31176 -20.0029
upperneck 6.00139 -11.3755 16.615
head 3.26051 -5.93822 8.07424
rclavicle 6.55989e-015 -4.29375e-014
rhumerus -18.8594 -6.57633 -87.1387
rradius 87.8536
rwrist 9.2676
rhand 5.20548 394.728
rfingers 7.12502
rthumb 30.5659 367.245
lclavicle 6.55989e-015 -4.29375e-014
lhumerus -17.1133 7.29426 96.1963
lradius 120.527
lwrist -30.1295
lhand -28.9093 -314.127
lfingers 7.12502
lthumb -2.26412 -2084.16
rfemur -32.5931 -15.1 12.147
rtibia 41.6704
rfoot -27.9434 -26.7496
rtoes 17.9801
lfemur -2.9442 7.22451 -34.6942
ltibia 38.4126
lfoot -7.0758 -12.4358
ltoes -29.7043
2252
root 18.3054 15.8944 4.0188 -2206.65 -71.3904 410.034
lowerback 6.31197 0.377838 2.18424
upperback -6.33311 -0.55267 -10.0481
thorax -10.6211 -1.13168 -12.3788
lowerneck 2.87764 -6.94074 -19.0202
upperneck 5.97708 -10.6716 16.366
head 3.19151 -5.53491 7.84978
rclavicle -3.81667e-014 3.65764e-014
rhumerus -19.7038 -5.99129 -87.5285
rradius 89.2739
rwrist 9.31194
rhand 5.23684 394.584
rfingers 7.12502
rthumb 30.5958 367.107
lclavicle -3.81667e-014 3.65764e-014
lhumerus -18.274 9.11743 95.1584
lradius 120.996
lwrist -29.5837
lhand -29.6321 -313.974
lfingers 7.12502
lthumb -2.96214 -2084.01
rfemur -31.2737 -13.4732 14.6214
rtibia 40.6662
rfoot -26.2635 -27.7047
rtoes 12.7043
lfemur -6.56489 9.26385 -31.8996
ltibia 45.3125
lfoot -1.26802 -11.6149
ltoes -26.7462
2253
root 18.0996 15.9001 4.01338 -2203.85 -74.1372 406.854
lowerback 6.95814 -0.221368 4.10483
upperback -6.59692 -1.05672 -9.26405
thorax -11.4647 -1.53146 -12.592
lowerneck 1.43097 -6.54005 -18.0613
upperneck 6.50815 -9.92468 16.3025
head 3.39953 -5.08806 7.66783
rclavicle 2.28602e-014 -1.03368e-014
rhumerus -20.1118 -5.39904 -87.6056
rradius 90.428
rwrist 9.17842
rhand 5.64934 394.817
rfingers 7.12502
rthumb 30.9891 367.414
lclavicle 2.28602e-014 -1.03368e-014
lhumerus -19.5452 10.9106 93.9043
lradius 121.531
lwrist -29.0771
lhand -30.4271 -313.922
lfingers 7.12502
lthumb -3.72995 -2083.98
rfemur -29.57 -11.5168 17.3044
rtibia 39.7103
rfoot -26.2886 -27.26
rtoes 11.8225
lfemur -10.6152 11.5859 -28.6749
ltibia 52.5904
lfoot 3.74084 -10.5368
ltoes -26.5711
2254
root 17.8939 15.8564 4.00556 -2201.2 -76.6919 403.735
lowerback 7.80782 -0.867035 5.39939
upperback -6.89345 -1.67485 -8.48732
thorax -12.5125 -1.95925 -12.3957
lowerneck 0.266312 -6.09329 -16.6473
upperneck 7.06499 -9.1921 16.0298
head 3.54753 -4.65354 7.35421
rclavicle 1.96797e-014 -2.94201e-014
rhumerus -20.2941 -4.56142 -87.5941
rradius 91.3409
rwrist 8.88045
rhand 5.89897 395.156
rfingers 7.12502
rthumb 31.227 367.798
lclavicle 1.96797e-014 -2.94201e-014
lhumerus -20.8654 12.5007 92.2516
lradius 122.001
lwrist -28.9844
lhand -31.4013 -313.585
lfingers 7.12502
lthumb -4.67068 -2083.66
rfemur -27.8893 -10.2795 19.7835
rtibia 38.8314
rfoot -25.6986 -26.2593
rtoes 8.64521
lfemur -14.663 14.0206 -25.8233
ltibia 59.7607
lfoot 5.47462 -8.64849
ltoes -31.0248
2255
root 17.674 15.8447 3.99591 -2198.71 -79.2233 400.754
lowerback 9.4231 -1.43208 5.46698
upperback -7.67598 -2.24619 -7.09857
thorax -14.5089 -2.26381 -10.7305
lowerneck -0.415888 -5.5106 -15.7375
upperneck 7.96765 -8.38286 15.5598
head 3.73028 -4.21887 7.08363
rclavicle -1.68967e-014 -3.97569e-015
rhumerus -20.9492 -3.36374 -86.2496
rradius 92.4445
rwrist 9.487
rhand 7.57656 395.528
rfingers 7.12502
rthumb 32.8243 368.491
lclavicle -1.68967e-014 -3.97569e-015
lhumerus -22.6891 14.242 91.0959
lradius 122.402
lwrist -29.057
lhand -32.4057 -313.489
lfingers 7.12502
lthumb -5.64047 -2083.58
rfemur -26.0065 -9.8437 22.1264
rtibia 37.868
rfoot -25.1948 -24.5189
rtoes 6.47585
lfemur -18.2023 16.5288 -23.2933
ltibia 66.1232
lfoot 7.08145 -5.39278
ltoes -29.3445
2256
root 17.4587 15.8253 3.98452 -2192.81 -82.043 394.555
lowerback 9.25916 -1.98723 6.37921
upperback -7.424 -2.67602 -6.0386
thorax -14.1841 -2.42233 -9.89924
lowerneck -1.45437 -5.04847 -14.3023
upperneck 7.8334 -7.6548 15.5693
head 3.69185 -3.77782 6.86395
rclavicle 3.97569e-015 9.54166e-015
rhumerus -19.1855 -2.63458 -85.7448
rradius 92.9463
rwrist 10.0586
rhand 8.27301 396.026
rfingers 7.12502
rthumb 33.4866 369.13
lclavicle 3.97569e-015 9.54166e-015
lhumerus -21.8679 15.2624 89.4012
lradius 122.459
lwrist -28.4198
lhand -32.3867 -314.347
lfingers 7.12502
lthumb -5.62209 -2084.44
rfemur -24.3627 -9.69952 25.0298
rtibia 36.7651
rfoot -24.7888 -22.9615
rtoes 4.87697
lfemur -21.9781 18.622 -20.5855
ltibia 71.1923
lfoot 4.76786 0.372609
ltoes -25.3899
2257
root 17.2497 15.8004 3.9676 -2184.59 -84.6322 386.447
lowerback 9.76099 -2.26591 6.47914
upperback -7.8201 -2.85129 -4.83171
thorax -14.9262 -2.45714 -8.50548
lowerneck -1.93981 -4.67803 -12.6217
upperneck 8.12635 -7.12799 14.7461
head 3.68934 -3.47656 6.33259
rclavicle 2.40529e-014 -7.95139e-015
rhumerus -18.1391 -2.26501 -84.7631
rradius 93.2994
rwrist 11.0582
rhand 7.84417 396.422
rfingers 7.12502
rthumb 33.0789 369.439
lclavicle 2.40529e-014 -7.95139e-015
lhumerus -21.548 15.7069 87.7728
lradius 122.31
lwrist -28.0018
lhand -32.0012 -315.04
lfingers 7.12502
lthumb -5.24993 -2085.12
rfemur -23.1328 -9.62205 27.6363
rtibia 35.5343
rfoot -24.2072 -21.7344
rtoes 2.77081
lfemur -25.894 20.0897 -18.4633
ltibia 74.8555
lfoot 0.0918556 3.61797
ltoes -31.1543
2258
root 17.031 15.8408 3.94433 -2176.46 -86.8985 378.718
lowerback 9.68775 -2.35781 5.88744
upperback -8.16934 -2.95297 -3.86986
thorax -15.1929 -2.38218 -7.01987
lowerneck -2.24719 -4.29711 -10.8504
upperneck 8.23357 -6.5919 13.8071
head 3.60895 -3.17992 5.75575
rclavicle 2.18663e-015 1.90833e-014
rhumerus -16.9852 -2.31266 -83.7598
rradius 93.6905
rwrist 12.1073
rhand 7.25203 396.879
rfingers 7.12502
rthumb 32.5156 369.778
lclavicle 2.18663e-015 1.90833e-014
lhumerus -20.5864 15.745 85.8846
lradius 121.665
lwrist -27.9754
lhand -32.0631 -315.078
lfingers 7.12502
lthumb -5.30966 -2085.16
rfemur -21.8948 -9.27051 29.3279
rtibia 34.1304
rfoot -23.9079 -20.3532
rtoes 2.56866
lfemur -29.3709 19.9017 -17.4457
ltibia 76.7487
lfoot -4.74642 4.57508
ltoes -37.1102
